<?xml version="1.0" encoding="utf-8"?>
<!-- Generator: Adobe Illustrator 25.2.0, SVG Export Plug-In . SVG Version: 6.00 Build 0)  -->
<svg version="1.1" id="Layer_1" xmlns="http://www.w3.org/2000/svg" xmlns:xlink="http://www.w3.org/1999/xlink" x="0px" y="0px"
	 viewBox="0 0 842 278" style="enable-background:new 0 0 842 278;" xml:space="preserve">
<style type="text/css">
	.st0{fill:#F60F01;}
	.st1{fill:#01007B;}
	.st2{fill:#EC0F00;}
</style>
<rect x="216.5" y="29.2" class="st0" width="14.9" height="31.1"/>
<path class="st1" d="M263,77.4c-8,3.6-15.3,7-22.6,10.3c-1.6,0.7-2.8-0.3-4-1c-22.8-13.2-45.5-26.3-68.3-39.5
	c-7.4-4.3-14.9-8.5-22.3-12.9c-2-1.2-3.4-1-5.4,0.1C107.9,53,75.2,71.5,42.7,90.1c-2.5,1.4-4.3,1.5-6.8-0.1
	c-5.1-3.5-10.5-6.6-15.8-9.9c-3.7-2.3-3.7-2.4,0-4.5c16.5-9.4,33-18.9,49.5-28.3C93.1,33.9,116.5,20.5,139.9,7
	c2.4-1.4,4.1-1.4,6.4,0c22,13.4,44.1,26.6,66.2,39.9c0.9,0.5,1.9,1.7,2.8,1.7l20,12.2l0,0c0.3,0.2,0.6,0.4,0.9,0.6l0.1,0.1
	c6.2,3.6,12.3,7.3,18.7,11.1C257.7,74.1,260.3,75.7,263,77.4z"/>
<polygon class="st1" points="97.1,82.4 97.1,100.9 63.3,119 63.3,204.1 142.4,247.5 151.9,242.1 151.9,99.4 166.8,108.8 
	178.9,150.1 189.8,119 201.9,126.9 201.9,198.1 191.1,204.9 191.1,154.8 179.6,182.5 167.4,150.1 167.4,253.6 141.7,270.5 
	47.7,214.3 47.7,110.2 "/>
<polygon class="st2" points="78.2,126.4 90.3,119.6 90.3,151.2 115.3,151.2 115.3,73.7 143.1,56.1 231.7,110.2 231.7,215 185,244.8 
	185,225.8 217.5,204.2 217.5,118.3 143.1,77 131.4,82.4 131.4,227.9 115.4,219.1 115.4,165.6 89.7,165.6 89.7,204.2 78.2,199.5 "/>
<g>
	<path class="st2" d="M331.5,168.6h-38.2v35.5H280v-81.2h13.3v34.8h38.2v-34.8h13.3v81.2h-13.3V168.6z"/>
	<path class="st2" d="M399.4,204.9c-22.9,0-41.5-17.2-41.5-41.6c0-24.3,18.6-41.5,41.5-41.5c23.1,0,41.5,17.2,41.5,41.5
		C440.9,187.7,422.6,204.9,399.4,204.9z M399.4,193.3c16.1,0,27.8-11.7,27.8-30c0-18.3-11.7-29.8-27.8-29.8
		c-16.1,0-27.8,11.5-27.8,29.8C371.6,181.7,383.3,193.3,399.4,193.3z"/>
	<path class="st1" d="M454,122.9h14.4l28.5,63.7l28.4-63.7h14.3v81.2h-13.3v-55.6l-24.8,55.6h-9.2l-24.9-55.6v55.6H454V122.9z"/>
	<path class="st1" d="M594.1,204.9c-22.9,0-41.5-17.2-41.5-41.6c0-24.3,18.6-41.5,41.5-41.5c23.1,0,41.5,17.2,41.5,41.5
		C635.6,187.7,617.3,204.9,594.1,204.9z M594.1,193.3c16.1,0,27.8-11.7,27.8-30c0-18.3-11.7-29.8-27.8-29.8
		c-16.1,0-27.8,11.5-27.8,29.8C566.3,181.7,578,193.3,594.1,193.3z"/>
	<path class="st1" d="M644.5,122.9h56.7v10.9h-21.6v70.4h-13.3v-70.4h-21.7V122.9z"/>
	<path class="st1" d="M759.5,133.6H728v23.8h28v10.9h-28v24.9h31.6v10.9h-44.9v-81.3h44.9V133.6z"/>
	<path class="st1" d="M789.2,122.9v70.5h27.5v10.8h-40.8v-81.2H789.2z"/>
</g>
</svg>
